<svg width="25" height="18" viewBox="0 0 25 18" fill="none" xmlns="http://www.w3.org/2000/svg">
<path d="M19.2528 17.7315H15.3737H14.3292H14.1036V12.5284H15.8053C16.2368 12.5284 16.4918 12.038 16.2368 11.6849L12.9266 7.10463C12.7158 6.81039 12.2793 6.81039 12.0685 7.10463L8.75827 11.6849C8.50327 12.038 8.75337 12.5284 9.18982 12.5284H10.8915V17.7315H10.6659H9.62137H5.12444C2.54986 17.5893 0.5 15.1815 0.5 12.5726C0.5 10.7728 1.47589 9.20353 2.92256 8.35514C2.79015 7.99715 2.7215 7.61464 2.7215 7.21252C2.7215 5.37353 4.2074 3.88763 6.04638 3.88763C6.4436 3.88763 6.82611 3.95628 7.1841 4.08869C8.24826 1.83287 10.5433 0.268501 13.2111 0.268501C16.6635 0.273405 19.5078 2.91664 19.8314 6.28567C22.4845 6.74174 24.5 9.19862 24.5 11.9792C24.5 14.951 22.1853 17.5256 19.2528 17.7315Z" fill="#60769D"/>
</svg>
