<svg width="18" height="18" viewBox="0 0 18 18" fill="none" xmlns="http://www.w3.org/2000/svg">
<path d="M13.6719 5.15625C13.6719 2.57656 11.5797 0.484375 9 0.484375C6.42031 0.484375 4.32812 2.57656 4.32812 5.15625C4.32812 7.73594 6.42031 9.82812 9 9.82812C11.5797 9.82812 13.6719 7.73594 13.6719 5.15625ZM5.54688 5.15625C5.54688 3.24688 7.09063 1.70312 9 1.70312C10.9094 1.70312 12.4531 3.24688 12.4531 5.15625C12.4531 7.06562 10.9094 8.60938 9 8.60938C7.09063 8.60938 5.54688 7.06562 5.54688 5.15625Z" fill="#CEB686"/>
<path d="M1.17976 16.9781C1.28132 17.0391 1.38288 17.0594 1.48445 17.0594C1.68757 17.0594 1.91101 16.9578 2.01257 16.7547C3.43445 14.2359 6.1157 12.6719 9.00007 12.6719C11.8844 12.6719 14.5657 14.2359 16.0079 16.7547C16.1704 17.0391 16.5563 17.1406 16.8407 16.9781C17.1251 16.8156 17.2266 16.4297 17.0641 16.1453C15.4188 13.2609 12.3313 11.4531 9.00007 11.4531C5.66882 11.4531 2.58132 13.2609 0.936008 16.1453C0.773508 16.4297 0.87507 16.8156 1.17976 16.9781Z" fill="#CEB686"/>
</svg>
