<svg width="58" height="78" viewBox="0 0 58 78" fill="none" xmlns="http://www.w3.org/2000/svg">
<path d="M10.8008 33.8002H5.92578V23.4002C5.92578 10.7252 16.3258 0.325195 29.0008 0.325195C40.7008 0.325195 50.4508 8.9377 51.9133 20.4752L47.2008 21.1252C46.0633 12.0252 38.2633 5.2002 29.0008 5.2002C18.9258 5.2002 10.8008 13.3252 10.8008 23.4002V33.8002" fill="#CEB686"/>
<path d="M49.6379 77.6746H8.20039C3.97539 77.6746 0.400391 74.2621 0.400391 69.8746V38.8371C0.400391 34.6121 3.81289 31.0371 8.20039 31.0371H49.6379C53.8629 31.0371 57.4379 34.4496 57.4379 38.8371V69.8746C57.4379 74.2621 54.0254 77.6746 49.6379 77.6746ZM8.36289 36.3996C6.90039 36.3996 5.76289 37.5371 5.76289 38.9996V70.0371C5.76289 71.4996 6.90039 72.6371 8.36289 72.6371H49.8004C51.2629 72.6371 52.4004 71.4996 52.4004 70.0371V38.9996C52.4004 37.5371 51.2629 36.3996 49.8004 36.3996H8.36289Z" fill="#CEB686"/>
<path d="M34.2008 46.6375C34.2008 49.5625 31.9258 51.8375 29.0008 51.8375C26.0758 51.8375 23.8008 49.5625 23.8008 46.6375C23.8008 43.7125 26.0758 41.4375 29.0008 41.4375C31.9258 41.4375 34.2008 43.875 34.2008 46.6375Z" fill="#CEB686"/>
<path d="M30.3006 46.6377H27.7006L25.1006 62.2377H32.9006L30.3006 46.6377" fill="#CEB686"/>
</svg>
