<svg width="152" height="152" viewBox="0 0 152 152" fill="none" xmlns="http://www.w3.org/2000/svg">
<g filter="url(#filter0_di_421_595)">
<circle cx="76" cy="72" r="35" fill="#CEB686"/>
</g>
<path d="M78.7394 60.0017V75.3589C78.7394 76.4885 78.9797 77.2576 79.4604 77.6662C79.941 78.0507 80.7582 78.2429 81.9118 78.2429V79C81.4311 78.976 80.7221 78.9519 79.7848 78.9279C78.8716 78.8798 77.9222 78.8558 76.9369 78.8558C75.7833 78.8558 74.6777 78.8798 73.6203 78.9279C72.5628 78.9519 71.7457 78.976 71.1689 79V78.2429C72.3225 78.2429 73.2237 78.0507 73.8726 77.6662C74.5215 77.2576 74.846 76.4645 74.846 75.2868V66.5267C74.846 65.3731 74.7258 64.5199 74.4855 63.9671C74.2692 63.4144 73.8606 63.0539 73.2598 62.8856C72.683 62.7174 71.8899 62.6333 70.8805 62.6333V61.8402C72.707 61.7921 74.2331 61.6359 75.4588 61.3715C76.6845 61.1072 77.778 60.6506 78.7394 60.0017Z" fill="#0C1F41"/>
<defs>
<filter id="filter0_di_421_595" x="0" y="0" width="152" height="152" filterUnits="userSpaceOnUse" color-interpolation-filters="sRGB">
<feFlood flood-opacity="0" result="BackgroundImageFix"/>
<feColorMatrix in="SourceAlpha" type="matrix" values="0 0 0 0 0 0 0 0 0 0 0 0 0 0 0 0 0 0 127 0" result="hardAlpha"/>
<feMorphology radius="1" operator="dilate" in="SourceAlpha" result="effect1_dropShadow_421_595"/>
<feOffset dy="4"/>
<feGaussianBlur stdDeviation="20"/>
<feComposite in2="hardAlpha" operator="out"/>
<feColorMatrix type="matrix" values="0 0 0 0 0.807843 0 0 0 0 0.713726 0 0 0 0 0.52549 0 0 0 0.3 0"/>
<feBlend mode="normal" in2="BackgroundImageFix" result="effect1_dropShadow_421_595"/>
<feBlend mode="normal" in="SourceGraphic" in2="effect1_dropShadow_421_595" result="shape"/>
<feColorMatrix in="SourceAlpha" type="matrix" values="0 0 0 0 0 0 0 0 0 0 0 0 0 0 0 0 0 0 127 0" result="hardAlpha"/>
<feMorphology radius="1" operator="erode" in="SourceAlpha" result="effect2_innerShadow_421_595"/>
<feOffset dy="4"/>
<feGaussianBlur stdDeviation="20"/>
<feComposite in2="hardAlpha" operator="arithmetic" k2="-1" k3="1"/>
<feColorMatrix type="matrix" values="0 0 0 0 0.807843 0 0 0 0 0.713726 0 0 0 0 0.52549 0 0 0 0.3 0"/>
<feBlend mode="normal" in2="shape" result="effect2_innerShadow_421_595"/>
</filter>
</defs>
</svg>
