<svg width="152" height="152" viewBox="0 0 152 152" fill="none" xmlns="http://www.w3.org/2000/svg">
<g filter="url(#filter0_di_421_589)">
<circle cx="76" cy="72" r="35" fill="#CEB686"/>
</g>
<path d="M76.556 59.8935C77.6375 59.8935 78.5869 60.0617 79.404 60.3982C80.2452 60.7106 80.8941 61.1793 81.3507 61.8041C81.8314 62.405 82.0717 63.15 82.0717 64.0392C82.0717 64.9525 81.7953 65.8057 81.2425 66.5988C80.7138 67.3919 79.9928 68.0768 79.0795 68.6537C78.1903 69.2064 77.1809 69.651 76.0513 69.9875C77.3491 69.9635 78.5508 70.1557 79.6563 70.5643C80.7619 70.9729 81.6511 71.5857 82.324 72.4028C83.021 73.1959 83.3695 74.2174 83.3695 75.4671C83.3695 76.5726 83.0931 77.5941 82.5403 78.5314C82.0116 79.4446 81.2786 80.2618 80.3413 80.9828C79.404 81.7278 78.3225 82.3527 77.0968 82.8574C75.8951 83.3861 74.6334 83.7826 73.3115 84.047C71.9897 84.3114 70.6799 84.4436 69.3821 84.4436V83.7586C70.5838 83.7346 71.7734 83.5303 72.951 83.1457C74.1287 82.7852 75.1861 82.2565 76.1234 81.5596C77.0848 80.8866 77.8538 80.0334 78.4306 79C79.0074 77.9666 79.2958 76.7889 79.2958 75.4671C79.2958 74.0491 78.9594 72.8835 78.2864 71.9702C77.6135 71.0329 76.6882 70.5162 75.5106 70.4201C75.1501 70.5883 74.8256 70.7325 74.5372 70.8527C74.2488 70.9488 73.9845 70.9969 73.7441 70.9969C73.5519 70.9969 73.3957 70.9608 73.2755 70.8887C73.1794 70.7926 73.1313 70.6604 73.1313 70.4922C73.1313 70.2519 73.2394 70.0716 73.4557 69.9514C73.672 69.8313 73.9004 69.7712 74.1407 69.7712C74.333 69.7712 74.5252 69.7952 74.7175 69.8433C74.9338 69.8673 75.1621 69.8914 75.4024 69.9154C76.4118 69.1944 77.1208 68.4013 77.5294 67.5361C77.962 66.6469 78.1783 65.7576 78.1783 64.8684C78.1783 63.7388 77.8899 62.9217 77.3131 62.417C76.7603 61.8883 76.0033 61.6239 75.0419 61.6239C74.0566 61.6239 73.1553 61.8883 72.3382 62.417C71.5211 62.9217 70.8361 63.6908 70.2833 64.7242L69.6344 64.3997C70.019 63.6066 70.5117 62.8736 71.1125 62.2007C71.7133 61.5037 72.4584 60.951 73.3476 60.5424C74.2368 60.1098 75.3063 59.8935 76.556 59.8935Z" fill="#0C1F41"/>
<defs>
<filter id="filter0_di_421_589" x="0" y="0" width="152" height="152" filterUnits="userSpaceOnUse" color-interpolation-filters="sRGB">
<feFlood flood-opacity="0" result="BackgroundImageFix"/>
<feColorMatrix in="SourceAlpha" type="matrix" values="0 0 0 0 0 0 0 0 0 0 0 0 0 0 0 0 0 0 127 0" result="hardAlpha"/>
<feMorphology radius="1" operator="dilate" in="SourceAlpha" result="effect1_dropShadow_421_589"/>
<feOffset dy="4"/>
<feGaussianBlur stdDeviation="20"/>
<feComposite in2="hardAlpha" operator="out"/>
<feColorMatrix type="matrix" values="0 0 0 0 0.807843 0 0 0 0 0.713726 0 0 0 0 0.52549 0 0 0 0.3 0"/>
<feBlend mode="normal" in2="BackgroundImageFix" result="effect1_dropShadow_421_589"/>
<feBlend mode="normal" in="SourceGraphic" in2="effect1_dropShadow_421_589" result="shape"/>
<feColorMatrix in="SourceAlpha" type="matrix" values="0 0 0 0 0 0 0 0 0 0 0 0 0 0 0 0 0 0 127 0" result="hardAlpha"/>
<feMorphology radius="1" operator="erode" in="SourceAlpha" result="effect2_innerShadow_421_589"/>
<feOffset dy="4"/>
<feGaussianBlur stdDeviation="20"/>
<feComposite in2="hardAlpha" operator="arithmetic" k2="-1" k3="1"/>
<feColorMatrix type="matrix" values="0 0 0 0 0.807843 0 0 0 0 0.713726 0 0 0 0 0.52549 0 0 0 0.3 0"/>
<feBlend mode="normal" in2="shape" result="effect2_innerShadow_421_589"/>
</filter>
</defs>
</svg>
