<svg width="222" height="151" viewBox="0 0 222 151" fill="none" xmlns="http://www.w3.org/2000/svg">
<path d="M7.10728 128.672C8.11528 128.672 8.99528 128.824 9.74728 129.128C10.4993 129.416 11.0833 129.832 11.4993 130.376C11.9153 130.904 12.1233 131.544 12.1233 132.296C12.1233 132.968 11.9633 133.568 11.6433 134.096C11.3233 134.624 10.9073 135.08 10.3953 135.464C9.88328 135.848 9.32328 136.168 8.71528 136.424C8.12328 136.68 7.55528 136.872 7.01128 137C7.71528 137.016 8.42728 137.12 9.14728 137.312C9.86728 137.488 10.5153 137.76 11.0913 138.128C11.6833 138.496 12.1553 138.952 12.5073 139.496C12.8593 140.04 13.0353 140.68 13.0353 141.416C13.0353 142.216 12.8433 142.92 12.4593 143.528C12.0753 144.136 11.5553 144.648 10.8993 145.064C10.2433 145.48 9.50728 145.792 8.69128 146C7.87528 146.224 7.01928 146.336 6.12328 146.336C5.25928 146.336 4.50728 146.24 3.86728 146.048C3.24328 145.872 2.72328 145.648 2.30728 145.376C1.98728 145.152 1.70728 144.888 1.46728 144.584C1.24328 144.264 1.13128 143.904 1.13128 143.504C1.13128 143.056 1.27528 142.696 1.56328 142.424C1.85128 142.152 2.21128 142.016 2.64328 142.016C3.07528 142.016 3.43528 142.144 3.72328 142.4C4.01128 142.656 4.15528 143.024 4.15528 143.504C4.15528 143.904 4.03528 144.232 3.79528 144.488C3.57128 144.744 3.26728 144.912 2.88328 144.992C3.09128 145.232 3.49128 145.44 4.08328 145.616C4.69128 145.792 5.34728 145.88 6.05128 145.88C7.44328 145.88 8.48328 145.488 9.17128 144.704C9.87528 143.904 10.2273 142.872 10.2273 141.608C10.2273 140.808 10.0913 140.08 9.81928 139.424C9.54728 138.768 9.13928 138.24 8.59528 137.84C8.06728 137.44 7.41128 137.232 6.62728 137.216C6.46728 137.296 6.29928 137.368 6.12328 137.432C5.96328 137.496 5.78728 137.528 5.59528 137.528C5.46728 137.528 5.34728 137.496 5.23528 137.432C5.13928 137.368 5.09128 137.264 5.09128 137.12C5.09128 136.864 5.25928 136.736 5.59528 136.736C5.78728 136.736 5.97128 136.752 6.14728 136.784C6.32328 136.816 6.49128 136.848 6.65128 136.88C7.33928 136.64 7.86728 136.32 8.23528 135.92C8.61928 135.52 8.89128 135.04 9.05128 134.48C9.21128 133.92 9.29128 133.296 9.29128 132.608C9.29128 131.488 9.07528 130.64 8.64328 130.064C8.22728 129.488 7.55528 129.2 6.62728 129.2C5.77928 129.2 5.07528 129.432 4.51528 129.896C3.95528 130.344 3.52328 130.936 3.21928 131.672C2.91528 132.392 2.73928 133.168 2.69128 134H2.13928C2.13928 132.992 2.13128 132.168 2.11528 131.528C2.11528 130.888 2.10728 130.36 2.09128 129.944C2.07528 129.528 2.05128 129.168 2.01928 128.864H2.57128C2.61928 129.232 2.67528 129.52 2.73928 129.728C2.81928 129.92 2.95528 130.016 3.14728 130.016C3.30728 130.016 3.54728 129.912 3.86728 129.704C4.10728 129.544 4.36328 129.384 4.63528 129.224C4.90728 129.064 5.23528 128.936 5.61928 128.84C6.01928 128.728 6.51528 128.672 7.10728 128.672ZM17.0125 146.168C16.3405 146.168 15.7645 146.04 15.2845 145.784C14.8045 145.528 14.4445 145.176 14.2045 144.728C13.9645 144.28 13.8445 143.768 13.8445 143.192C13.8445 142.488 14.0045 141.92 14.3245 141.488C14.6445 141.04 15.0525 140.68 15.5485 140.408C16.0605 140.136 16.5965 139.912 17.1565 139.736C17.7325 139.544 18.2685 139.368 18.7645 139.208C19.2765 139.032 19.6925 138.832 20.0125 138.608C20.3485 138.384 20.5165 138.088 20.5165 137.72V136.088C20.5165 135.512 20.4205 135.056 20.2285 134.72C20.0525 134.368 19.8045 134.12 19.4845 133.976C19.1805 133.832 18.8125 133.76 18.3805 133.76C18.0125 133.76 17.6205 133.816 17.2045 133.928C16.7885 134.024 16.4605 134.224 16.2205 134.528C16.5725 134.624 16.8605 134.816 17.0845 135.104C17.3245 135.376 17.4445 135.72 17.4445 136.136C17.4445 136.584 17.2925 136.936 16.9885 137.192C16.7005 137.448 16.3325 137.576 15.8845 137.576C15.3885 137.576 15.0205 137.424 14.7805 137.12C14.5405 136.8 14.4205 136.432 14.4205 136.016C14.4205 135.584 14.5245 135.232 14.7325 134.96C14.9565 134.688 15.2445 134.432 15.5965 134.192C15.9805 133.936 16.4685 133.72 17.0605 133.544C17.6685 133.368 18.3405 133.28 19.0765 133.28C19.7645 133.28 20.3565 133.36 20.8525 133.52C21.3645 133.664 21.7885 133.904 22.1245 134.24C22.5245 134.608 22.7885 135.072 22.9165 135.632C23.0445 136.176 23.1085 136.84 23.1085 137.624V144.248C23.1085 144.648 23.1565 144.936 23.2525 145.112C23.3645 145.272 23.5405 145.352 23.7805 145.352C23.9405 145.352 24.0925 145.312 24.2365 145.232C24.3965 145.152 24.5805 145.032 24.7885 144.872L25.0285 145.28C24.6925 145.552 24.3485 145.768 23.9965 145.928C23.6605 146.088 23.2285 146.168 22.7005 146.168C22.1885 146.168 21.7725 146.088 21.4525 145.928C21.1325 145.768 20.8925 145.536 20.7325 145.232C20.5885 144.928 20.5165 144.552 20.5165 144.104C20.1005 144.776 19.6045 145.288 19.0285 145.64C18.4525 145.992 17.7805 146.168 17.0125 146.168ZM18.1645 145.016C18.6125 145.016 19.0285 144.888 19.4125 144.632C19.8125 144.376 20.1805 143.992 20.5165 143.48V138.704C20.3405 138.96 20.0845 139.184 19.7485 139.376C19.4125 139.552 19.0525 139.736 18.6685 139.928C18.2845 140.12 17.9165 140.344 17.5645 140.6C17.2285 140.84 16.9485 141.152 16.7245 141.536C16.5005 141.92 16.3885 142.408 16.3885 143C16.3885 143.624 16.5485 144.12 16.8685 144.488C17.1885 144.84 17.6205 145.016 18.1645 145.016ZM34.5857 133.64C34.5217 134.248 34.4737 134.824 34.4417 135.368C34.4257 135.912 34.4177 136.328 34.4177 136.616C34.4177 136.92 34.4257 137.208 34.4417 137.48C34.4577 137.752 34.4737 137.976 34.4897 138.152H33.9377C33.8257 137.16 33.6737 136.376 33.4817 135.8C33.3057 135.208 33.0417 134.784 32.6897 134.528C32.3537 134.256 31.8897 134.12 31.2977 134.12C31.1697 134.12 31.0337 134.12 30.8897 134.12C30.7617 134.12 30.6257 134.12 30.4817 134.12C29.9697 134.12 29.6017 134.24 29.3777 134.48C29.1697 134.72 29.0657 135.152 29.0657 135.776V143.528C29.0657 144.312 29.2817 144.84 29.7137 145.112C30.1617 145.368 30.7617 145.496 31.5137 145.496V146C31.1297 145.984 30.5857 145.968 29.8817 145.952C29.1937 145.92 28.4577 145.904 27.6737 145.904C27.1137 145.904 26.5537 145.92 25.9937 145.952C25.4497 145.968 25.0337 145.984 24.7457 146V145.496C25.3697 145.496 25.8097 145.376 26.0657 145.136C26.3377 144.896 26.4737 144.44 26.4737 143.768V135.872C26.4737 135.2 26.3377 134.744 26.0657 134.504C25.8097 134.264 25.3697 134.144 24.7457 134.144V133.64C25.0337 133.656 25.4657 133.68 26.0417 133.712C26.6177 133.728 27.1777 133.736 27.7217 133.736C28.2817 133.736 28.8337 133.72 29.3777 133.688C29.9377 133.656 30.4337 133.64 30.8657 133.64H34.5857ZM39.1013 133.352V148.064C39.1013 148.768 39.3013 149.24 39.7013 149.48C40.1013 149.72 40.6533 149.84 41.3573 149.84V150.344C40.9893 150.328 40.4773 150.304 39.8213 150.272C39.1653 150.256 38.4613 150.248 37.7093 150.248C37.1813 150.248 36.6613 150.256 36.1493 150.272C35.6373 150.304 35.2453 150.328 34.9733 150.344V149.84C35.5333 149.84 35.9253 149.728 36.1493 149.504C36.3893 149.296 36.5093 148.896 36.5093 148.304V136.232C36.5093 135.512 36.3893 134.984 36.1493 134.648C35.9093 134.296 35.4533 134.12 34.7813 134.12V133.616C35.2933 133.664 35.7893 133.688 36.2693 133.688C36.7973 133.688 37.3013 133.664 37.7813 133.616C38.2613 133.552 38.7013 133.464 39.1013 133.352ZM42.9173 133.28C43.7493 133.28 44.4933 133.512 45.1493 133.976C45.8213 134.424 46.3493 135.088 46.7333 135.968C47.1173 136.848 47.3093 137.944 47.3093 139.256C47.3093 140.216 47.1973 141.128 46.9733 141.992C46.7493 142.84 46.4053 143.592 45.9413 144.248C45.4933 144.888 44.9253 145.4 44.2373 145.784C43.5493 146.152 42.7333 146.336 41.7893 146.336C41.0853 146.336 40.4613 146.184 39.9173 145.88C39.3893 145.576 39.0133 145.192 38.7893 144.728L39.0293 144.392C39.2373 144.792 39.5253 145.12 39.8933 145.376C40.2773 145.632 40.7493 145.76 41.3093 145.76C42.1413 145.76 42.7893 145.496 43.2533 144.968C43.7333 144.424 44.0693 143.696 44.2613 142.784C44.4533 141.856 44.5493 140.808 44.5493 139.64C44.5493 138.328 44.4533 137.272 44.2613 136.472C44.0693 135.656 43.7813 135.064 43.3973 134.696C43.0133 134.312 42.5493 134.12 42.0053 134.12C41.2853 134.12 40.6293 134.408 40.0373 134.984C39.4613 135.56 39.1093 136.424 38.9813 137.576L38.7413 137.072C38.9493 135.872 39.4293 134.944 40.1813 134.288C40.9493 133.616 41.8613 133.28 42.9173 133.28ZM59.0586 133.616V134.096C58.7546 134.144 58.4746 134.304 58.2186 134.576C57.9626 134.832 57.7146 135.28 57.4746 135.92L53.7306 145.952L53.1546 146.528L48.4746 135.464C48.1706 134.84 47.8746 134.464 47.5866 134.336C47.3146 134.192 47.0826 134.12 46.8906 134.12V133.616C47.2906 133.664 47.7146 133.704 48.1626 133.736C48.6106 133.752 49.0746 133.76 49.5546 133.76C50.0986 133.76 50.6426 133.744 51.1866 133.712C51.7466 133.68 52.2666 133.648 52.7466 133.616V134.12C52.3626 134.12 52.0186 134.152 51.7146 134.216C51.4266 134.264 51.2346 134.416 51.1386 134.672C51.0586 134.912 51.1386 135.328 51.3786 135.92L54.3546 143.24L54.1866 143.312L56.6106 136.88C56.8506 136.24 56.9466 135.728 56.8986 135.344C56.8506 134.944 56.6826 134.648 56.3946 134.456C56.1066 134.248 55.6826 134.128 55.1226 134.096V133.616C55.3946 133.632 55.6426 133.648 55.8666 133.664C56.1066 133.664 56.3386 133.672 56.5626 133.688C56.7866 133.688 57.0106 133.688 57.2346 133.688C57.5866 133.688 57.9146 133.68 58.2186 133.664C58.5386 133.648 58.8186 133.632 59.0586 133.616ZM53.7306 145.952L52.8666 148.208C52.7066 148.608 52.5386 148.944 52.3626 149.216C52.2026 149.488 52.0266 149.712 51.8346 149.888C51.5946 150.112 51.2986 150.272 50.9466 150.368C50.5946 150.464 50.2426 150.512 49.8906 150.512C49.5546 150.512 49.2346 150.448 48.9306 150.32C48.6426 150.208 48.4026 150.032 48.2106 149.792C48.0186 149.552 47.9226 149.256 47.9226 148.904C47.9226 148.488 48.0586 148.152 48.3306 147.896C48.6026 147.64 48.9626 147.512 49.4106 147.512C49.8106 147.512 50.1466 147.616 50.4186 147.824C50.6906 148.048 50.8266 148.368 50.8266 148.784C50.8266 149.072 50.7466 149.32 50.5866 149.528C50.4426 149.736 50.2506 149.896 50.0106 150.008C50.0586 150.024 50.1066 150.032 50.1546 150.032C50.2026 150.032 50.2426 150.032 50.2746 150.032C50.7226 150.032 51.1226 149.88 51.4746 149.576C51.8266 149.288 52.1226 148.816 52.3626 148.16L53.2266 145.856L53.7306 145.952ZM64.2009 133.28C64.9529 133.28 65.6089 133.4 66.1689 133.64C66.7289 133.864 67.1609 134.184 67.4649 134.6C67.7849 135.016 67.9449 135.52 67.9449 136.112C67.9449 136.784 67.7369 137.344 67.3209 137.792C66.9209 138.224 66.4169 138.568 65.8089 138.824C65.2009 139.08 64.5849 139.272 63.9609 139.4C64.9049 139.416 65.7289 139.544 66.4329 139.784C67.1369 140.024 67.6809 140.376 68.0649 140.84C68.4489 141.288 68.6409 141.864 68.6409 142.568C68.6409 143.336 68.4009 144.008 67.9209 144.584C67.4409 145.144 66.7849 145.576 65.9529 145.88C65.1209 146.184 64.2009 146.336 63.1929 146.336C62.5049 146.336 61.8969 146.256 61.3689 146.096C60.8569 145.952 60.4089 145.752 60.0249 145.496C59.6889 145.272 59.4169 145.016 59.2089 144.728C59.0009 144.44 58.8969 144.12 58.8969 143.768C58.8969 143.352 59.0249 143.008 59.2809 142.736C59.5529 142.464 59.9129 142.328 60.3609 142.328C60.7769 142.328 61.1289 142.456 61.4169 142.712C61.7209 142.952 61.8729 143.304 61.8729 143.768C61.8729 144.136 61.7609 144.44 61.5369 144.68C61.3289 144.904 61.0569 145.056 60.7209 145.136C60.8489 145.344 61.1449 145.528 61.6089 145.688C62.0889 145.832 62.5689 145.904 63.0489 145.904C64.0089 145.904 64.7369 145.616 65.2329 145.04C65.7449 144.464 66.0009 143.712 66.0009 142.784C66.0009 141.936 65.7929 141.208 65.3769 140.6C64.9769 139.992 64.3769 139.664 63.5769 139.616C63.4169 139.696 63.2489 139.768 63.0729 139.832C62.9129 139.896 62.7449 139.928 62.5689 139.928C62.2169 139.928 62.0409 139.792 62.0409 139.52C62.0409 139.264 62.2249 139.136 62.5929 139.136C62.7529 139.136 62.9209 139.152 63.0969 139.184C63.2729 139.216 63.4409 139.248 63.6009 139.28C64.3049 139.024 64.7769 138.64 65.0169 138.128C65.2569 137.616 65.3769 137.04 65.3769 136.4C65.3769 135.616 65.2249 134.992 64.9209 134.528C64.6169 134.064 64.1449 133.832 63.5049 133.832C62.9129 133.832 62.3609 134.008 61.8489 134.36C61.3529 134.696 60.9529 135.168 60.6489 135.776C60.3449 136.384 60.1929 137.088 60.1929 137.888H59.6409C59.6729 137.088 59.6809 136.408 59.6649 135.848C59.6489 135.288 59.6249 134.816 59.5929 134.432C59.5769 134.032 59.5529 133.712 59.5209 133.472H60.0729C60.1209 133.824 60.1769 134.088 60.2409 134.264C60.3209 134.44 60.4409 134.528 60.6009 134.528C60.6969 134.528 60.8089 134.488 60.9369 134.408C61.0809 134.328 61.2409 134.232 61.4169 134.12C61.7369 133.912 62.1129 133.72 62.5449 133.544C62.9769 133.368 63.5289 133.28 64.2009 133.28ZM83.0881 133.64V134.144C82.4641 134.144 82.0161 134.264 81.7441 134.504C81.4881 134.744 81.3601 135.2 81.3601 135.872V143.768C81.3601 144.44 81.4881 144.896 81.7441 145.136C82.0161 145.376 82.4641 145.496 83.0881 145.496V146C82.8161 145.984 82.3921 145.968 81.8161 145.952C81.2401 145.92 80.6721 145.904 80.1121 145.904C79.5681 145.904 79.0241 145.92 78.4801 145.952C77.9521 145.968 77.5521 145.984 77.2801 146V145.496C77.8241 145.496 78.2081 145.376 78.4321 145.136C78.6561 144.896 78.7681 144.44 78.7681 143.768V135.872C78.7681 135.2 78.6561 134.744 78.4321 134.504C78.2081 134.264 77.8241 134.144 77.2801 134.144V133.64C77.5521 133.656 77.9441 133.68 78.4561 133.712C78.9841 133.728 79.5201 133.736 80.0641 133.736C80.6241 133.736 81.1921 133.728 81.7681 133.712C82.3601 133.68 82.8001 133.656 83.0881 133.64ZM74.9521 133.64V134.144C74.4241 134.144 74.0401 134.264 73.8001 134.504C73.5761 134.744 73.4641 135.2 73.4641 135.872V143.768C73.4641 144.44 73.5761 144.896 73.8001 145.136C74.0401 145.376 74.4241 145.496 74.9521 145.496V146C74.6961 145.984 74.3041 145.968 73.7761 145.952C73.2641 145.92 72.7281 145.904 72.1681 145.904C71.6241 145.904 71.0561 145.92 70.4641 145.952C69.8721 145.968 69.4321 145.984 69.1441 146V145.496C69.7681 145.496 70.2081 145.376 70.4641 145.136C70.7361 144.896 70.8721 144.44 70.8721 143.768V135.872C70.8721 135.2 70.7361 134.744 70.4641 134.504C70.2081 134.264 69.7681 134.144 69.1441 134.144V133.64C69.4321 133.656 69.8641 133.68 70.4401 133.712C71.0161 133.728 71.5761 133.736 72.1201 133.736C72.6801 133.736 73.2241 133.728 73.7521 133.712C74.2961 133.68 74.6961 133.656 74.9521 133.64ZM79.0321 135.248L79.4161 135.512L73.1281 144.824L72.7201 144.536L79.0321 135.248ZM95.5699 133.64C95.5059 134.248 95.4579 134.824 95.4259 135.368C95.4099 135.912 95.4019 136.328 95.4019 136.616C95.4019 136.92 95.4099 137.208 95.4259 137.48C95.4419 137.752 95.4579 137.976 95.4739 138.152H94.9219C94.7939 137.032 94.5859 136.184 94.2979 135.608C94.0259 135.032 93.6739 134.64 93.2419 134.432C92.8099 134.224 92.2979 134.12 91.7059 134.12H90.8179V143.528C90.8179 144.312 91.0339 144.84 91.4659 145.112C91.9139 145.368 92.5139 145.496 93.2659 145.496V146C92.8819 145.984 92.3539 145.968 91.6819 145.952C91.0099 145.92 90.2899 145.904 89.5219 145.904C88.7699 145.904 88.0499 145.92 87.3619 145.952C86.6899 145.968 86.1619 145.984 85.7779 146V145.496C86.5459 145.496 87.1459 145.376 87.5779 145.136C88.0099 144.88 88.2259 144.36 88.2259 143.576V134.12H87.1459C86.5539 134.12 86.0579 134.224 85.6579 134.432C85.2579 134.64 84.9299 135.04 84.6739 135.632C84.4339 136.208 84.2499 137.056 84.1219 138.176H83.5699C83.6019 138 83.6179 137.776 83.6179 137.504C83.6339 137.232 83.6419 136.944 83.6419 136.64C83.6419 136.352 83.6259 135.936 83.5939 135.392C83.5779 134.832 83.5379 134.256 83.4739 133.664H85.8499C86.3619 133.664 86.9379 133.672 87.5779 133.688C88.2179 133.704 88.8579 133.712 89.4979 133.712C90.1379 133.712 90.7779 133.704 91.4179 133.688C92.0739 133.656 92.6579 133.64 93.1699 133.64H95.5699ZM101.949 133.64V134.144C101.325 134.144 100.877 134.264 100.605 134.504C100.349 134.744 100.221 135.2 100.221 135.872V143.936C100.221 144.528 100.341 144.936 100.581 145.16C100.821 145.384 101.229 145.496 101.805 145.496C102.621 145.496 103.245 145.352 103.677 145.064C104.109 144.776 104.405 144.392 104.565 143.912C104.725 143.432 104.805 142.928 104.805 142.4C104.805 141.28 104.509 140.472 103.917 139.976C103.341 139.48 102.373 139.232 101.013 139.232C100.645 139.232 100.269 139.232 99.8848 139.232C99.5008 139.232 99.1328 139.232 98.7808 139.232L98.7328 138.8C99.4048 138.8 100.045 138.8 100.653 138.8C101.277 138.8 101.877 138.8 102.453 138.8C104.261 138.8 105.549 139.128 106.317 139.784C107.101 140.424 107.493 141.24 107.493 142.232C107.493 142.824 107.317 143.408 106.965 143.984C106.629 144.56 106.061 145.04 105.261 145.424C104.477 145.808 103.421 146 102.093 146C101.629 146 101.125 145.984 100.581 145.952C100.053 145.92 99.4848 145.904 98.8768 145.904C98.3648 145.904 97.8208 145.92 97.2448 145.952C96.6688 145.968 96.2368 145.984 95.9488 146V145.496C96.5568 145.496 96.9888 145.376 97.2448 145.136C97.5008 144.896 97.6288 144.44 97.6288 143.768V135.872C97.6288 135.2 97.5168 134.744 97.2928 134.504C97.0688 134.264 96.6848 134.144 96.1408 134.144V133.64C96.4128 133.656 96.8048 133.68 97.3168 133.712C97.8448 133.728 98.3808 133.736 98.9248 133.736C99.4848 133.736 100.053 133.728 100.629 133.712C101.221 133.68 101.661 133.656 101.949 133.64ZM123.044 128.72V148.064C123.044 148.768 123.204 149.24 123.524 149.48C123.86 149.72 124.324 149.84 124.916 149.84V150.344C124.58 150.328 124.132 150.304 123.572 150.272C123.012 150.256 122.404 150.248 121.748 150.248C121.108 150.248 120.5 150.256 119.924 150.272C119.348 150.304 118.9 150.328 118.58 150.344V149.84C119.172 149.84 119.628 149.72 119.948 149.48C120.284 149.24 120.452 148.768 120.452 148.064V131.6C120.452 130.88 120.324 130.352 120.068 130.016C119.828 129.664 119.38 129.488 118.724 129.488V128.984C118.98 129 119.228 129.016 119.468 129.032C119.724 129.048 119.98 129.056 120.236 129.056C120.748 129.056 121.244 129.032 121.724 128.984C122.204 128.92 122.644 128.832 123.044 128.72ZM118.076 133.28C118.876 133.28 119.54 133.464 120.068 133.832C120.596 134.2 121.004 134.816 121.292 135.68L120.86 135.536C120.604 134.96 120.26 134.544 119.828 134.288C119.412 134.016 118.972 133.88 118.508 133.88C117.628 133.88 116.956 134.368 116.492 135.344C116.044 136.304 115.82 137.76 115.82 139.712C115.82 141.072 115.932 142.184 116.156 143.048C116.38 143.912 116.708 144.552 117.14 144.968C117.588 145.368 118.14 145.568 118.796 145.568C119.292 145.568 119.756 145.464 120.188 145.256C120.62 145.048 120.876 144.736 120.956 144.32L121.196 144.584C121.052 145.144 120.684 145.576 120.092 145.88C119.5 146.184 118.812 146.336 118.028 146.336C117.068 146.336 116.212 146.104 115.46 145.64C114.724 145.16 114.14 144.44 113.708 143.48C113.276 142.52 113.06 141.312 113.06 139.856C113.06 138.368 113.276 137.136 113.708 136.16C114.156 135.184 114.756 134.464 115.508 134C116.276 133.52 117.132 133.28 118.076 133.28ZM125.876 133.28C127.22 133.28 128.316 133.784 129.164 134.792C130.012 135.784 130.436 137.28 130.436 139.28C130.436 140.24 130.324 141.144 130.1 141.992C129.892 142.84 129.572 143.592 129.14 144.248C128.708 144.888 128.156 145.4 127.484 145.784C126.812 146.152 126.028 146.336 125.132 146.336C124.556 146.336 124.044 146.24 123.596 146.048C123.148 145.872 122.764 145.568 122.444 145.136L122.588 144.68C122.844 145.032 123.148 145.304 123.5 145.496C123.852 145.672 124.236 145.76 124.652 145.76C125.42 145.76 126.02 145.496 126.452 144.968C126.9 144.44 127.212 143.72 127.388 142.808C127.58 141.88 127.676 140.816 127.676 139.616C127.676 138.288 127.572 137.216 127.364 136.4C127.172 135.584 126.876 134.992 126.476 134.624C126.076 134.256 125.58 134.072 124.988 134.072C124.46 134.072 123.948 134.216 123.452 134.504C122.956 134.792 122.652 135.24 122.54 135.848L122.18 135.656C122.34 135.144 122.604 134.712 122.972 134.36C123.34 134.008 123.772 133.744 124.268 133.568C124.78 133.376 125.316 133.28 125.876 133.28ZM137.175 133.28C138.247 133.28 139.199 133.504 140.031 133.952C140.863 134.4 141.527 135.104 142.023 136.064C142.519 137.024 142.767 138.28 142.767 139.832C142.767 141.384 142.519 142.64 142.023 143.6C141.527 144.544 140.863 145.24 140.031 145.688C139.199 146.12 138.247 146.336 137.175 146.336C136.119 146.336 135.167 146.12 134.319 145.688C133.471 145.24 132.799 144.544 132.303 143.6C131.823 142.64 131.583 141.384 131.583 139.832C131.583 138.28 131.823 137.024 132.303 136.064C132.799 135.104 133.471 134.4 134.319 133.952C135.167 133.504 136.119 133.28 137.175 133.28ZM137.175 133.76C136.343 133.76 135.663 134.24 135.135 135.2C134.607 136.144 134.343 137.688 134.343 139.832C134.343 141.976 134.607 143.52 135.135 144.464C135.663 145.392 136.343 145.856 137.175 145.856C137.991 145.856 138.663 145.392 139.191 144.464C139.735 143.52 140.007 141.976 140.007 139.832C140.007 137.688 139.735 136.144 139.191 135.2C138.663 134.24 137.991 133.76 137.175 133.76ZM155.632 133.64C155.568 134.248 155.52 134.824 155.488 135.368C155.472 135.912 155.464 136.328 155.464 136.616C155.464 136.92 155.472 137.208 155.488 137.48C155.504 137.752 155.52 137.976 155.536 138.152H154.984C154.856 137.032 154.648 136.184 154.36 135.608C154.088 135.032 153.736 134.64 153.304 134.432C152.872 134.224 152.36 134.12 151.768 134.12H150.88V143.528C150.88 144.312 151.096 144.84 151.528 145.112C151.976 145.368 152.576 145.496 153.328 145.496V146C152.944 145.984 152.416 145.968 151.744 145.952C151.072 145.92 150.352 145.904 149.584 145.904C148.832 145.904 148.112 145.92 147.424 145.952C146.752 145.968 146.224 145.984 145.84 146V145.496C146.608 145.496 147.208 145.376 147.64 145.136C148.072 144.88 148.288 144.36 148.288 143.576V134.12H147.208C146.616 134.12 146.12 134.224 145.72 134.432C145.32 134.64 144.992 135.04 144.736 135.632C144.496 136.208 144.312 137.056 144.184 138.176H143.632C143.664 138 143.68 137.776 143.68 137.504C143.696 137.232 143.704 136.944 143.704 136.64C143.704 136.352 143.688 135.936 143.656 135.392C143.64 134.832 143.6 134.256 143.536 133.664H145.912C146.424 133.664 147 133.672 147.64 133.688C148.28 133.704 148.92 133.712 149.56 133.712C150.2 133.712 150.84 133.704 151.48 133.688C152.136 133.656 152.72 133.64 153.232 133.64H155.632ZM162.011 133.28C163.083 133.28 164.035 133.504 164.867 133.952C165.699 134.4 166.363 135.104 166.859 136.064C167.355 137.024 167.603 138.28 167.603 139.832C167.603 141.384 167.355 142.64 166.859 143.6C166.363 144.544 165.699 145.24 164.867 145.688C164.035 146.12 163.083 146.336 162.011 146.336C160.955 146.336 160.003 146.12 159.155 145.688C158.307 145.24 157.635 144.544 157.139 143.6C156.659 142.64 156.419 141.384 156.419 139.832C156.419 138.28 156.659 137.024 157.139 136.064C157.635 135.104 158.307 134.4 159.155 133.952C160.003 133.504 160.955 133.28 162.011 133.28ZM162.011 133.76C161.179 133.76 160.499 134.24 159.971 135.2C159.443 136.144 159.179 137.688 159.179 139.832C159.179 141.976 159.443 143.52 159.971 144.464C160.499 145.392 161.179 145.856 162.011 145.856C162.827 145.856 163.499 145.392 164.027 144.464C164.571 143.52 164.843 141.976 164.843 139.832C164.843 137.688 164.571 136.144 164.027 135.2C163.499 134.24 162.827 133.76 162.011 133.76ZM185.664 133.64V134.144C185.04 134.144 184.592 134.264 184.32 134.504C184.064 134.744 183.936 135.2 183.936 135.872V143.768C183.936 144.44 184.064 144.896 184.32 145.136C184.592 145.376 185.04 145.496 185.664 145.496V146C185.392 145.984 184.984 145.968 184.44 145.952C183.896 145.92 183.28 145.904 182.592 145.904C181.936 145.904 181.248 145.92 180.528 145.952C179.824 145.968 179.28 145.984 178.896 146V145.496C179.68 145.496 180.28 145.368 180.696 145.112C181.128 144.84 181.344 144.312 181.344 143.528V135.872C181.344 135.2 181.232 134.744 181.008 134.504C180.784 134.264 180.4 134.144 179.856 134.144V133.64C180.128 133.656 180.52 133.68 181.032 133.712C181.56 133.728 182.104 133.736 182.664 133.736C183.208 133.736 183.768 133.728 184.344 133.712C184.936 133.68 185.376 133.656 185.664 133.64ZM178.632 133.64V134.144C178.088 134.144 177.704 134.264 177.48 134.504C177.256 134.744 177.144 135.2 177.144 135.872V137.864C177.144 138.424 177.176 138.912 177.24 139.328C177.32 139.728 177.496 140.032 177.768 140.24C178.04 140.448 178.48 140.552 179.088 140.552C179.552 140.552 179.992 140.496 180.408 140.384C180.84 140.272 181.192 140.112 181.464 139.904V140.408C181.144 140.616 180.648 140.824 179.976 141.032C179.304 141.24 178.608 141.344 177.888 141.344C177.296 141.344 176.784 141.264 176.352 141.104C175.92 140.944 175.576 140.728 175.32 140.456C175.016 140.136 174.808 139.736 174.696 139.256C174.6 138.76 174.552 138.152 174.552 137.432V135.872C174.552 135.2 174.416 134.744 174.144 134.504C173.888 134.264 173.448 134.144 172.824 134.144V133.64C173.112 133.656 173.544 133.68 174.12 133.712C174.696 133.728 175.256 133.736 175.8 133.736C176.36 133.736 176.904 133.728 177.432 133.712C177.96 133.68 178.36 133.656 178.632 133.64ZM191.94 133.28C193.348 133.28 194.452 133.704 195.252 134.552C196.052 135.4 196.452 136.744 196.452 138.584H188.172L188.124 138.128H193.908C193.924 137.344 193.86 136.624 193.716 135.968C193.572 135.296 193.348 134.76 193.044 134.36C192.74 133.96 192.34 133.76 191.844 133.76C191.156 133.76 190.556 134.128 190.044 134.864C189.548 135.584 189.244 136.744 189.132 138.344L189.204 138.464C189.188 138.688 189.172 138.936 189.156 139.208C189.14 139.464 189.132 139.72 189.132 139.976C189.132 141.08 189.3 142.008 189.636 142.76C189.972 143.512 190.412 144.08 190.956 144.464C191.5 144.832 192.052 145.016 192.612 145.016C193.044 145.016 193.46 144.952 193.86 144.824C194.276 144.68 194.668 144.448 195.036 144.128C195.404 143.792 195.732 143.336 196.02 142.76L196.5 142.952C196.308 143.496 196.012 144.032 195.612 144.56C195.212 145.088 194.7 145.52 194.076 145.856C193.452 146.176 192.724 146.336 191.892 146.336C190.772 146.336 189.796 146.088 188.964 145.592C188.132 145.08 187.492 144.352 187.044 143.408C186.596 142.464 186.372 141.344 186.372 140.048C186.372 138.624 186.604 137.408 187.068 136.4C187.532 135.392 188.18 134.624 189.012 134.096C189.86 133.552 190.836 133.28 191.94 133.28ZM207.833 133.28C208.473 133.28 208.929 133.432 209.201 133.736C209.473 134.04 209.609 134.392 209.609 134.792C209.609 135.224 209.481 135.576 209.225 135.848C208.969 136.12 208.617 136.256 208.169 136.256C207.881 136.256 207.617 136.192 207.377 136.064C207.137 135.936 206.945 135.752 206.801 135.512C206.657 135.272 206.585 134.984 206.585 134.648C206.585 134.552 206.609 134.456 206.657 134.36C206.705 134.248 206.777 134.16 206.873 134.096C206.617 134.16 206.409 134.304 206.249 134.528C206.089 134.736 205.937 135.032 205.793 135.416C205.649 135.784 205.481 136.248 205.289 136.808C205.145 137.24 204.977 137.656 204.785 138.056C204.593 138.44 204.321 138.768 203.969 139.04C203.633 139.296 203.161 139.464 202.553 139.544L202.721 139.376C203.777 139.312 204.673 139.4 205.409 139.64C206.161 139.88 206.745 140.312 207.161 140.936C207.449 141.352 207.681 141.864 207.857 142.472C208.049 143.08 208.257 143.648 208.481 144.176C208.657 144.576 208.849 144.888 209.057 145.112C209.281 145.32 209.625 145.448 210.089 145.496V146C209.833 146.048 209.569 146.088 209.297 146.12C209.025 146.152 208.769 146.168 208.529 146.168C207.745 146.168 207.145 145.992 206.729 145.64C206.329 145.288 206.041 144.776 205.865 144.104C205.785 143.848 205.689 143.528 205.577 143.144C205.481 142.744 205.345 142.344 205.169 141.944C205.009 141.528 204.817 141.176 204.593 140.888C204.273 140.44 203.849 140.144 203.321 140C202.809 139.856 202.145 139.8 201.329 139.832V139.424C202.177 139.376 202.825 139.232 203.273 138.992C203.721 138.752 204.065 138.416 204.305 137.984C204.545 137.552 204.769 137.024 204.977 136.4C205.137 135.888 205.313 135.392 205.505 134.912C205.697 134.432 205.969 134.04 206.321 133.736C206.689 133.432 207.193 133.28 207.833 133.28ZM202.961 133.64V134.144C202.401 134.144 202.001 134.264 201.761 134.504C201.537 134.744 201.425 135.2 201.425 135.872V143.768C201.425 144.44 201.537 144.896 201.761 145.136C202.001 145.376 202.401 145.496 202.961 145.496V146C202.689 145.984 202.281 145.968 201.737 145.952C201.193 145.92 200.641 145.904 200.081 145.904C199.537 145.904 198.977 145.92 198.401 145.952C197.825 145.968 197.393 145.984 197.105 146V145.496C197.729 145.496 198.169 145.376 198.425 145.136C198.697 144.896 198.833 144.44 198.833 143.768V135.872C198.833 135.2 198.697 134.744 198.425 134.504C198.169 134.264 197.729 134.144 197.105 134.144V133.64C197.393 133.656 197.825 133.68 198.401 133.712C198.993 133.728 199.569 133.736 200.129 133.736C200.673 133.736 201.217 133.728 201.761 133.712C202.305 133.68 202.705 133.656 202.961 133.64ZM213.552 146.168C212.88 146.168 212.304 146.04 211.824 145.784C211.344 145.528 210.984 145.176 210.744 144.728C210.504 144.28 210.384 143.768 210.384 143.192C210.384 142.488 210.544 141.92 210.864 141.488C211.184 141.04 211.592 140.68 212.088 140.408C212.6 140.136 213.136 139.912 213.696 139.736C214.272 139.544 214.808 139.368 215.304 139.208C215.816 139.032 216.232 138.832 216.552 138.608C216.888 138.384 217.056 138.088 217.056 137.72V136.088C217.056 135.512 216.96 135.056 216.768 134.72C216.592 134.368 216.344 134.12 216.024 133.976C215.72 133.832 215.352 133.76 214.92 133.76C214.552 133.76 214.16 133.816 213.744 133.928C213.328 134.024 213 134.224 212.76 134.528C213.112 134.624 213.4 134.816 213.624 135.104C213.864 135.376 213.984 135.72 213.984 136.136C213.984 136.584 213.832 136.936 213.528 137.192C213.24 137.448 212.872 137.576 212.424 137.576C211.928 137.576 211.56 137.424 211.32 137.12C211.08 136.8 210.96 136.432 210.96 136.016C210.96 135.584 211.064 135.232 211.272 134.96C211.496 134.688 211.784 134.432 212.136 134.192C212.52 133.936 213.008 133.72 213.6 133.544C214.208 133.368 214.88 133.28 215.616 133.28C216.304 133.28 216.896 133.36 217.392 133.52C217.904 133.664 218.328 133.904 218.664 134.24C219.064 134.608 219.328 135.072 219.456 135.632C219.584 136.176 219.648 136.84 219.648 137.624V144.248C219.648 144.648 219.696 144.936 219.792 145.112C219.904 145.272 220.08 145.352 220.32 145.352C220.48 145.352 220.632 145.312 220.776 145.232C220.936 145.152 221.12 145.032 221.328 144.872L221.568 145.28C221.232 145.552 220.888 145.768 220.536 145.928C220.2 146.088 219.768 146.168 219.24 146.168C218.728 146.168 218.312 146.088 217.992 145.928C217.672 145.768 217.432 145.536 217.272 145.232C217.128 144.928 217.056 144.552 217.056 144.104C216.64 144.776 216.144 145.288 215.568 145.64C214.992 145.992 214.32 146.168 213.552 146.168ZM214.704 145.016C215.152 145.016 215.568 144.888 215.952 144.632C216.352 144.376 216.72 143.992 217.056 143.48V138.704C216.88 138.96 216.624 139.184 216.288 139.376C215.952 139.552 215.592 139.736 215.208 139.928C214.824 140.12 214.456 140.344 214.104 140.6C213.768 140.84 213.488 141.152 213.264 141.536C213.04 141.92 212.928 142.408 212.928 143C212.928 143.624 213.088 144.12 213.408 144.488C213.728 144.84 214.16 145.016 214.704 145.016Z" fill="#B5C6D0"/>
<path d="M146.039 36.1229C144.852 17.7332 132.064 0 108.609 0C87.1576 0 70.6147 15.9449 69.7386 37.2242C58.0018 40.876 51.5938 53.4362 51.5938 62.5781C51.5938 76.654 63.2917 89 76.625 89H94.7031C95.0719 89 95.4257 88.8535 95.6864 88.5927C95.9472 88.3319 96.0938 87.9782 96.0938 87.6094C96.0938 87.2406 95.9472 86.8868 95.6864 86.6261C95.4257 86.3653 95.0719 86.2188 94.7031 86.2188H76.625C64.7713 86.2188 54.375 75.1716 54.375 62.5781C54.375 54.0925 61.8121 38.9375 76.625 38.9375H80.7969C81.1657 38.9375 81.5194 38.791 81.7802 38.5302C82.041 38.2694 82.1875 37.9157 82.1875 37.5469C82.1875 37.1781 82.041 36.8243 81.7802 36.5636C81.5194 36.3028 81.1657 36.1562 80.7969 36.1562H76.625C75.2093 36.1562 73.8716 36.3148 72.5672 36.5428C73.6574 19.8832 86.3204 2.78125 108.609 2.78125C132.495 2.78125 143.375 21.5241 143.375 38.9375V43.1094C143.375 43.4782 143.522 43.8319 143.782 44.0927C144.043 44.3535 144.397 44.5 144.766 44.5C145.134 44.5 145.488 44.3535 145.749 44.0927C146.01 43.8319 146.156 43.4782 146.156 43.1094V38.9125C154.553 39.8331 165.625 48.8443 165.625 62.5781C165.625 73.2192 155.359 86.2188 143.375 86.2188H122.516C113.51 86.2188 110 82.7088 110 73.7031V35.5527L121.342 46.8724C121.47 47.0054 121.623 47.1115 121.793 47.1846C121.962 47.2578 122.145 47.2964 122.329 47.2982C122.514 47.3001 122.697 47.2652 122.868 47.1955C123.039 47.1258 123.195 47.0228 123.325 46.8924C123.456 46.762 123.56 46.6069 123.63 46.4361C123.7 46.2653 123.735 46.0822 123.734 45.8976C123.733 45.713 123.695 45.5304 123.622 45.3607C123.549 45.1909 123.444 45.0373 123.311 44.9088L110.904 32.5267C109.252 30.8802 107.97 30.8802 106.32 32.5267L93.9132 44.9088C93.6599 45.1711 93.5198 45.5224 93.5229 45.887C93.5261 46.2516 93.6724 46.6004 93.9302 46.8582C94.188 47.1161 94.5368 47.2623 94.9014 47.2655C95.266 47.2687 95.6173 47.1285 95.8796 46.8752L107.219 35.5527V73.7031C107.219 84.283 111.936 89 122.516 89H143.375C156.856 89 168.406 74.4708 168.406 62.5781C168.406 48.2074 156.661 36.9684 146.039 36.1229Z" fill="#B5C6D0"/>
</svg>
